<svg width="234" height="61" viewBox="0 0 234 61" fill="none" xmlns="http://www.w3.org/2000/svg">
<rect x="0.5" y="0.5" width="232.6" height="59.8" rx="29.9" stroke="white"/>
<path d="M58.125 26.625C57.6417 25.6083 56.9417 24.825 56.025 24.275C55.1083 23.7083 54.0417 23.425 52.825 23.425C51.6083 23.425 50.5083 23.7083 49.525 24.275C48.5583 24.825 47.7917 25.625 47.225 26.675C46.675 27.7083 46.4 28.9083 46.4 30.275C46.4 31.6417 46.675 32.8417 47.225 33.875C47.7917 34.9083 48.5583 35.7083 49.525 36.275C50.5083 36.825 51.6083 37.1 52.825 37.1C54.525 37.1 55.925 36.5917 57.025 35.575C58.125 34.5583 58.7667 33.1833 58.95 31.45H52V29.6H61.375V31.35C61.2417 32.7833 60.7917 34.1 60.025 35.3C59.2583 36.4833 58.25 37.425 57 38.125C55.75 38.8083 54.3583 39.15 52.825 39.15C51.2083 39.15 49.7333 38.775 48.4 38.025C47.0667 37.2583 46.0083 36.2 45.225 34.85C44.4583 33.5 44.075 31.975 44.075 30.275C44.075 28.575 44.4583 27.05 45.225 25.7C46.0083 24.3333 47.0667 23.275 48.4 22.525C49.7333 21.7583 51.2083 21.375 52.825 21.375C54.675 21.375 56.3083 21.8333 57.725 22.75C59.1583 23.6667 60.2 24.9583 60.85 26.625H58.125ZM76.883 31.625C76.883 32.0583 76.858 32.5167 76.808 33H65.858C65.9413 34.35 66.3997 35.4083 67.233 36.175C68.083 36.925 69.108 37.3 70.308 37.3C71.2913 37.3 72.108 37.075 72.758 36.625C73.4247 36.1583 73.8913 35.5417 74.158 34.775H76.608C76.2413 36.0917 75.508 37.1667 74.408 38C73.308 38.8167 71.9413 39.225 70.308 39.225C69.008 39.225 67.8413 38.9333 66.808 38.35C65.7913 37.7667 64.9913 36.9417 64.408 35.875C63.8247 34.7917 63.533 33.5417 63.533 32.125C63.533 30.7083 63.8163 29.4667 64.383 28.4C64.9497 27.3333 65.7413 26.5167 66.758 25.95C67.7913 25.3667 68.9747 25.075 70.308 25.075C71.608 25.075 72.758 25.3583 73.758 25.925C74.758 26.4917 75.5247 27.275 76.058 28.275C76.608 29.2583 76.883 30.375 76.883 31.625ZM74.533 31.15C74.533 30.2833 74.3413 29.5417 73.958 28.925C73.5747 28.2917 73.0497 27.8167 72.383 27.5C71.733 27.1667 71.008 27 70.208 27C69.058 27 68.0747 27.3667 67.258 28.1C66.458 28.8333 65.9997 29.85 65.883 31.15H74.533ZM82.6609 27.175V35.25C82.6609 35.9167 82.8026 36.3917 83.0859 36.675C83.3693 36.9417 83.8609 37.075 84.5609 37.075H86.2359V39H84.1859C82.9193 39 81.9693 38.7083 81.3359 38.125C80.7026 37.5417 80.3859 36.5833 80.3859 35.25V27.175H78.6109V25.3H80.3859V21.85H82.6609V25.3H86.2359V27.175H82.6609ZM101.182 39.175C100.032 39.175 98.9991 38.975 98.0824 38.575C97.1824 38.1583 96.4741 37.5917 95.9574 36.875C95.4408 36.1417 95.1741 35.3 95.1574 34.35H97.5824C97.6658 35.1667 97.9991 35.8583 98.5824 36.425C99.1824 36.975 100.049 37.25 101.182 37.25C102.266 37.25 103.116 36.9833 103.732 36.45C104.366 35.9 104.682 35.2 104.682 34.35C104.682 33.6833 104.499 33.1417 104.132 32.725C103.766 32.3083 103.307 31.9917 102.757 31.775C102.207 31.5583 101.466 31.325 100.532 31.075C99.3824 30.775 98.4574 30.475 97.7574 30.175C97.0741 29.875 96.4824 29.4083 95.9824 28.775C95.4991 28.125 95.2574 27.2583 95.2574 26.175C95.2574 25.225 95.4991 24.3833 95.9824 23.65C96.4658 22.9167 97.1408 22.35 98.0074 21.95C98.8908 21.55 99.8991 21.35 101.032 21.35C102.666 21.35 103.999 21.7583 105.032 22.575C106.082 23.3917 106.674 24.475 106.807 25.825H104.307C104.224 25.1583 103.874 24.575 103.257 24.075C102.641 23.5583 101.824 23.3 100.807 23.3C99.8574 23.3 99.0824 23.55 98.4824 24.05C97.8824 24.5333 97.5824 25.2167 97.5824 26.1C97.5824 26.7333 97.7574 27.25 98.1074 27.65C98.4741 28.05 98.9158 28.3583 99.4324 28.575C99.9658 28.775 100.707 29.0083 101.657 29.275C102.807 29.5917 103.732 29.9083 104.432 30.225C105.132 30.525 105.732 31 106.232 31.65C106.732 32.2833 106.982 33.15 106.982 34.25C106.982 35.1 106.757 35.9 106.307 36.65C105.857 37.4 105.191 38.0083 104.307 38.475C103.424 38.9417 102.382 39.175 101.182 39.175ZM113.105 27.175V35.25C113.105 35.9167 113.247 36.3917 113.53 36.675C113.814 36.9417 114.305 37.075 115.005 37.075H116.68V39H114.63C113.364 39 112.414 38.7083 111.78 38.125C111.147 37.5417 110.83 36.5833 110.83 35.25V27.175H109.055V25.3H110.83V21.85H113.105V25.3H116.68V27.175H113.105ZM118.587 32.1C118.587 30.7 118.87 29.475 119.437 28.425C120.003 27.3583 120.778 26.5333 121.762 25.95C122.762 25.3667 123.87 25.075 125.087 25.075C126.287 25.075 127.328 25.3333 128.212 25.85C129.095 26.3667 129.753 27.0167 130.187 27.8V25.3H132.487V39H130.187V36.45C129.737 37.25 129.062 37.9167 128.162 38.45C127.278 38.9667 126.245 39.225 125.062 39.225C123.845 39.225 122.745 38.925 121.762 38.325C120.778 37.725 120.003 36.8833 119.437 35.8C118.87 34.7167 118.587 33.4833 118.587 32.1ZM130.187 32.125C130.187 31.0917 129.978 30.1917 129.562 29.425C129.145 28.6583 128.578 28.075 127.862 27.675C127.162 27.2583 126.387 27.05 125.537 27.05C124.687 27.05 123.912 27.25 123.212 27.65C122.512 28.05 121.953 28.6333 121.537 29.4C121.12 30.1667 120.912 31.0667 120.912 32.1C120.912 33.15 121.12 34.0667 121.537 34.85C121.953 35.6167 122.512 36.2083 123.212 36.625C123.912 37.025 124.687 37.225 125.537 37.225C126.387 37.225 127.162 37.025 127.862 36.625C128.578 36.2083 129.145 35.6167 129.562 34.85C129.978 34.0667 130.187 33.1583 130.187 32.125ZM138.606 27.525C139.006 26.7417 139.573 26.1333 140.306 25.7C141.056 25.2667 141.965 25.05 143.031 25.05V27.4H142.431C139.881 27.4 138.606 28.7833 138.606 31.55V39H136.331V25.3H138.606V27.525ZM148.432 27.175V35.25C148.432 35.9167 148.574 36.3917 148.857 36.675C149.141 36.9417 149.632 37.075 150.332 37.075H152.007V39H149.957C148.691 39 147.741 38.7083 147.107 38.125C146.474 37.5417 146.157 36.5833 146.157 35.25V27.175H144.382V25.3H146.157V21.85H148.432V25.3H152.007V27.175H148.432ZM167.264 31.625C167.264 32.0583 167.239 32.5167 167.189 33H156.239C156.322 34.35 156.781 35.4083 157.614 36.175C158.464 36.925 159.489 37.3 160.689 37.3C161.672 37.3 162.489 37.075 163.139 36.625C163.806 36.1583 164.272 35.5417 164.539 34.775H166.989C166.622 36.0917 165.889 37.1667 164.789 38C163.689 38.8167 162.322 39.225 160.689 39.225C159.389 39.225 158.222 38.9333 157.189 38.35C156.172 37.7667 155.372 36.9417 154.789 35.875C154.206 34.7917 153.914 33.5417 153.914 32.125C153.914 30.7083 154.197 29.4667 154.764 28.4C155.331 27.3333 156.122 26.5167 157.139 25.95C158.172 25.3667 159.356 25.075 160.689 25.075C161.989 25.075 163.139 25.3583 164.139 25.925C165.139 26.4917 165.906 27.275 166.439 28.275C166.989 29.2583 167.264 30.375 167.264 31.625ZM164.914 31.15C164.914 30.2833 164.722 29.5417 164.339 28.925C163.956 28.2917 163.431 27.8167 162.764 27.5C162.114 27.1667 161.389 27 160.589 27C159.439 27 158.456 27.3667 157.639 28.1C156.839 28.8333 156.381 29.85 156.264 31.15H164.914ZM169.417 32.1C169.417 30.7 169.7 29.475 170.267 28.425C170.833 27.3583 171.608 26.5333 172.592 25.95C173.592 25.3667 174.708 25.075 175.942 25.075C177.008 25.075 178 25.325 178.917 25.825C179.833 26.3083 180.533 26.95 181.017 27.75V20.5H183.317V39H181.017V36.425C180.567 37.2417 179.9 37.9167 179.017 38.45C178.133 38.9667 177.1 39.225 175.917 39.225C174.7 39.225 173.592 38.925 172.592 38.325C171.608 37.725 170.833 36.8833 170.267 35.8C169.7 34.7167 169.417 33.4833 169.417 32.1ZM181.017 32.125C181.017 31.0917 180.808 30.1917 180.392 29.425C179.975 28.6583 179.408 28.075 178.692 27.675C177.992 27.2583 177.217 27.05 176.367 27.05C175.517 27.05 174.742 27.25 174.042 27.65C173.342 28.05 172.783 28.6333 172.367 29.4C171.95 30.1667 171.742 31.0667 171.742 32.1C171.742 33.15 171.95 34.0667 172.367 34.85C172.783 35.6167 173.342 36.2083 174.042 36.625C174.742 37.025 175.517 37.225 176.367 37.225C177.217 37.225 177.992 37.025 178.692 36.625C179.408 36.2083 179.975 35.6167 180.392 34.85C180.808 34.0667 181.017 33.1583 181.017 32.125Z" fill="white"/>
</svg>
